<svg width="163" height="52" viewBox="0 0 163 52" fill="none" xmlns="http://www.w3.org/2000/svg">
<g clip-path="url(#clip0_62_527)">
<path d="M19.2056 31.7759L12.3664 33.3955L11.8572 32.4358L32.0961 26.6953V50.1857H19.1804L19.2056 31.7759Z" fill="#6458FF"/>
<path d="M79.1156 19.5753C79.1156 21.183 77.7884 22.4865 76.1513 22.4865C74.5142 22.4865 73.187 21.183 73.187 19.5753C73.187 17.9675 74.5142 16.6641 76.1513 16.6641C77.7884 16.6641 79.1156 17.9675 79.1156 19.5753ZM74.0965 19.5753C74.0965 20.6897 75.0165 21.5932 76.1513 21.5932C77.2861 21.5932 78.206 20.6897 78.206 19.5753C78.206 18.4608 77.2861 17.5573 76.1513 17.5573C75.0165 17.5573 74.0965 18.4608 74.0965 19.5753Z" fill="white"/>
<path d="M0.105508 33.4824L110.239 1.81182L108.449 0.503906L0 31.6901L0.105508 33.4824Z" fill="white"/>
<path d="M129.213 50.5685L162.729 40.8573L161.026 39.5977L129.108 48.7762L129.213 50.5685Z" fill="white"/>
<path d="M129.96 48.9238L76.8902 9.57227L76.1389 11.2111L129.209 50.5627L129.96 48.9238Z" fill="white"/>
<path d="M123.472 27.2456L93.7684 5.2207L93.0171 6.85953L121.331 27.8076L123.472 27.2456Z" fill="white"/>
<path d="M162.729 40.8578L108.452 0.548828L107.672 2.20743L159.969 41.1047L162.729 40.8578Z" fill="white"/>
<path d="M131.057 27.3054C132.468 27.3054 133.612 26.1818 133.612 24.7958C133.612 23.4097 132.468 22.2861 131.057 22.2861C129.646 22.2861 128.501 23.4097 128.501 24.7958C128.501 26.1818 129.646 27.3054 131.057 27.3054Z" fill="white"/>
<path d="M132.778 22.3082C132.537 22.0307 131.903 21.6019 131.577 21.437C131.251 21.2722 130.898 21.1734 130.537 21.1463C130.177 21.1192 129.816 21.1644 129.475 21.2792C129.135 21.3941 128.821 21.5762 128.553 21.8153C128.284 22.0546 128.066 22.3459 127.91 22.6732C127.754 23.0004 127.664 23.3568 127.645 23.722C127.626 24.0874 127.678 24.4544 127.798 24.8024C127.852 24.9568 127.981 25.174 128.13 25.392C128.133 25.3959 128.127 25.388 128.13 25.392C128.318 25.6655 128.236 26.055 128.451 26.3082C129.25 25.597 130.712 24.2725 130.712 24.2725L132.778 22.3082Z" fill="#6458FF"/>
<path d="M127.93 26.7868L128.451 26.3077C128.236 26.0546 128.318 25.6651 128.129 25.3916C128.295 26.0349 127.518 26.6818 127.93 26.7868Z" fill="#4397DE"/>
<path d="M131.386 31.2993L127.84 30.821C127.421 30.7645 127.035 31.0522 126.977 31.4634C126.92 31.8747 127.213 32.2539 127.631 32.3104L131.178 32.7887C131.597 32.8451 131.983 32.5575 132.04 32.1462C132.098 31.7349 131.805 31.3557 131.386 31.2993Z" fill="white"/>
<path d="M132.642 26.9618C133.578 26.0427 135.095 26.0427 136.031 26.9618L141.203 32.0409C142.139 32.9599 142.139 34.45 141.203 35.3692L139.508 37.0334L139.211 36.7416L132.249 29.9035C131.53 29.198 131.53 28.0538 132.249 27.3481L132.642 26.9618Z" fill="white"/>
<path d="M129.646 33.1281L126.171 35.462C125.76 35.7375 125.655 36.2876 125.936 36.6906C126.216 37.0936 126.777 37.1969 127.187 36.9213L130.662 34.5874C131.072 34.3118 131.178 33.7618 130.897 33.3588C130.616 32.9558 130.056 32.8525 129.646 33.1281Z" fill="white"/>
<path d="M131.867 28.209L134.218 29.3132C134.218 29.3132 133.74 31.3489 132.992 32.4252C132.307 33.41 130.743 34.5333 130.743 34.5333L126.961 37.043L125.939 35.7379L129.88 32.8599C129.91 32.8382 129.933 32.8091 129.947 32.7754L131.867 28.209Z" fill="white"/>
<path d="M126.351 28.1082L125.632 28.5039L128.335 33.2349L129.053 32.8392L126.351 28.1082Z" fill="white"/>
<path d="M124.5 28.3317L126.034 27.5611C126.034 27.5611 126.994 27.1301 127.091 27.3987C127.188 27.6673 126.529 28.1584 126.529 28.1584L124.96 29.0629L124.5 28.3317Z" fill="white"/>
<path d="M146.024 39.4982L138.138 37.0388C137.409 36.8114 136.63 37.2077 136.398 37.924C136.167 38.6404 136.57 39.4055 137.3 39.633L145.185 42.0923C145.915 42.3198 146.694 41.9235 146.925 41.2071C147.157 40.4908 146.754 39.7256 146.024 39.4982Z" fill="white"/>
<path d="M140.3 38.7734L141.644 34.8643C141.961 33.9425 141.457 32.943 140.518 32.6318C139.58 32.3206 138.562 32.8155 138.245 33.7372L136.901 37.6463C136.584 38.5681 137.088 39.5676 138.027 39.8788C138.965 40.19 139.983 39.6951 140.3 38.7734Z" fill="white"/>
<path d="M135.315 39.0404L138.579 36.4523C139.351 35.84 139.472 34.7291 138.849 33.9709L138.849 33.9708C138.225 33.2126 137.094 33.0942 136.322 33.7065L133.058 36.2946C132.286 36.9068 132.165 38.0178 132.789 38.776L132.789 38.776C133.412 39.5342 134.543 39.6526 135.315 39.0404Z" fill="white"/>
<path d="M132.83 37.6778C133.051 36.9582 133.824 36.5511 134.557 36.7685L140.599 38.5602C141.332 38.7776 141.746 39.5369 141.525 40.2565C141.304 40.9761 140.53 41.3832 139.798 41.1658L133.756 39.3741C133.023 39.1567 132.609 38.3974 132.83 37.6778Z" fill="white"/>
<path d="M44.1183 38.6943L42.297 36.1475C42.0719 36.1633 41.8948 36.1712 41.7662 36.1712H39.6796V38.6943H38.4734V30.4024H41.7662C42.8598 30.4024 43.7202 30.6592 44.3474 31.1723C44.9746 31.6857 45.2882 32.3924 45.2882 33.2927C45.2882 33.9324 45.1273 34.4773 44.8058 34.9274C44.4842 35.3775 44.0258 35.7054 43.4307 35.9106L45.433 38.6943H44.1183ZM41.7301 35.1643C42.494 35.1643 43.0769 35.0025 43.479 34.6786C43.8811 34.355 44.0821 33.893 44.0821 33.2927C44.0821 32.6926 43.8811 32.2346 43.479 31.9186C43.0769 31.595 42.494 31.4329 41.7301 31.4329H39.6796V35.1643H41.7301ZM51.0483 38.789C50.1961 38.789 49.4282 38.6075 48.7446 38.2441C48.0612 37.8731 47.5225 37.3638 47.1283 36.7161C46.7424 36.0686 46.5494 35.346 46.5494 34.5483C46.5494 33.7509 46.7424 33.0283 47.1283 32.3806C47.5225 31.7331 48.0612 31.2278 48.7446 30.8644C49.4282 30.4933 50.1961 30.3076 51.0483 30.3076C51.8926 30.3076 52.6566 30.4933 53.34 30.8644C54.0237 31.2278 54.5583 31.7331 54.9442 32.3806C55.3302 33.0203 55.5232 33.7428 55.5232 34.5483C55.5232 35.3538 55.3302 36.0804 54.9442 36.7279C54.5583 37.3676 54.0237 37.8731 53.34 38.2441C52.6566 38.6075 51.8926 38.789 51.0483 38.789ZM51.0483 37.7348C51.6676 37.7348 52.2224 37.5967 52.7128 37.3202C53.2114 37.0439 53.6015 36.6649 53.8828 36.183C54.1723 35.6935 54.317 35.1486 54.317 34.5483C54.317 33.9482 54.1723 33.4073 53.8828 32.9255C53.6015 32.436 53.2114 32.0529 52.7128 31.7765C52.2224 31.5002 51.6676 31.3619 51.0483 31.3619C50.4293 31.3619 49.8663 31.5002 49.3597 31.7765C48.8613 32.0529 48.4672 32.436 48.1777 32.9255C47.8964 33.4073 47.7555 33.9482 47.7555 34.5483C47.7555 35.1486 47.8964 35.6935 48.1777 36.183C48.4672 36.6649 48.8613 37.0439 49.3597 37.3202C49.8663 37.5967 50.4293 37.7348 51.0483 37.7348ZM61.1782 38.789C60.3259 38.789 59.5579 38.6075 58.8745 38.2441C58.191 37.8731 57.6522 37.3638 57.2582 36.7161C56.8722 36.0686 56.6793 35.346 56.6793 34.5483C56.6793 33.7509 56.8722 33.0283 57.2582 32.3806C57.6522 31.7331 58.191 31.2278 58.8745 30.8644C59.5579 30.4933 60.3259 30.3076 61.1782 30.3076C62.0225 30.3076 62.7865 30.4933 63.4699 30.8644C64.1533 31.2278 64.6881 31.7331 65.0741 32.3806C65.4601 33.0203 65.6531 33.7428 65.6531 34.5483C65.6531 35.3538 65.4601 36.0804 65.0741 36.7279C64.6881 37.3676 64.1533 37.8731 63.4699 38.2441C62.7865 38.6075 62.0225 38.789 61.1782 38.789ZM61.1782 37.7348C61.7974 37.7348 62.3523 37.5967 62.8427 37.3202C63.3413 37.0439 63.7312 36.6649 64.0127 36.183C64.3022 35.6935 64.4469 35.1486 64.4469 34.5483C64.4469 33.9482 64.3022 33.4073 64.0127 32.9255C63.7312 32.436 63.3413 32.0529 62.8427 31.7765C62.3523 31.5002 61.7974 31.3619 61.1782 31.3619C60.559 31.3619 59.9962 31.5002 59.4896 31.7765C58.991 32.0529 58.597 32.436 58.3076 32.9255C58.0261 33.4073 57.8854 33.9482 57.8854 34.5483C57.8854 35.1486 58.0261 35.6935 58.3076 36.183C58.597 36.6649 58.991 37.0439 59.4896 37.3202C59.9962 37.5967 60.559 37.7348 61.1782 37.7348ZM68.7028 31.4329V34.3233H72.9364V35.342H68.7028V38.6943H67.4966V30.4024H73.4551V31.4329H68.7028ZM75.1529 30.4024H76.359V38.6943H75.1529V30.4024ZM86.1479 30.4024V38.6943H85.1589L80.093 32.5109V38.6943H78.8869V30.4024H79.8759L84.9418 36.5858V30.4024H86.1479ZM94.5248 34.5009H95.6827V37.7348C95.2646 38.0745 94.7781 38.3351 94.2232 38.5166C93.6684 38.6983 93.0895 38.789 92.4864 38.789C91.6341 38.789 90.8662 38.6075 90.1826 38.2441C89.4992 37.8731 88.9605 37.3676 88.5664 36.7279C88.1804 36.0804 87.9874 35.3538 87.9874 34.5483C87.9874 33.7428 88.1804 33.0164 88.5664 32.3687C88.9605 31.7213 89.4992 31.2159 90.1826 30.8525C90.8742 30.4893 91.6502 30.3076 92.5105 30.3076C93.1859 30.3076 93.7972 30.4182 94.3439 30.6393C94.8987 30.8525 95.3691 31.1685 95.7551 31.5869L95.0072 32.3214C94.3318 31.6817 93.5157 31.3619 92.5587 31.3619C91.9156 31.3619 91.3366 31.5002 90.8219 31.7765C90.3153 32.0451 89.9173 32.4242 89.6278 32.9136C89.3383 33.3955 89.1936 33.9404 89.1936 34.5483C89.1936 35.1486 89.3383 35.6935 89.6278 36.183C89.9173 36.6649 90.3153 37.0439 90.8219 37.3202C91.3366 37.5967 91.9115 37.7348 92.5467 37.7348C93.3027 37.7348 93.962 37.5571 94.5248 37.2017V34.5009ZM41.736 50.0226C40.9775 50.0226 40.2913 49.8596 39.6773 49.5332C39.0706 49.1999 38.5938 48.7457 38.2471 48.1711C37.9004 47.5895 37.7271 46.9368 37.7271 46.2132C37.7271 45.4896 37.9004 44.8405 38.2471 44.2659C38.5938 43.6843 39.0743 43.2303 39.6882 42.9039C40.3021 42.5706 40.9884 42.4037 41.7468 42.4037C42.3391 42.4037 42.8808 42.5031 43.3721 42.7017C43.8633 42.8932 44.2822 43.1805 44.6289 43.5636L43.9247 44.234C43.3541 43.6453 42.6424 43.3508 41.7902 43.3508C41.2267 43.3508 40.7175 43.4751 40.2624 43.7232C39.8074 43.9716 39.4498 44.3157 39.1898 44.7554C38.9369 45.1882 38.8105 45.6741 38.8105 46.2132C38.8105 46.7525 38.9369 47.2419 39.1898 47.6816C39.4498 48.1145 39.8074 48.455 40.2624 48.7032C40.7175 48.9515 41.2267 49.0756 41.7902 49.0756C42.6353 49.0756 43.3467 48.7777 43.9247 48.1818L44.6289 48.8521C44.2822 49.2352 43.8596 49.5261 43.3612 49.7247C42.87 49.9235 42.3282 50.0226 41.736 50.0226ZM49.4397 50.0226C48.6741 50.0226 47.9843 49.8596 47.3702 49.5332C46.7563 49.1999 46.2724 48.7423 45.9183 48.1605C45.5716 47.5788 45.3982 46.9297 45.3982 46.2132C45.3982 45.4968 45.5716 44.8477 45.9183 44.2659C46.2724 43.6843 46.7563 43.2303 47.3702 42.9039C47.9843 42.5706 48.6741 42.4037 49.4397 42.4037C50.1981 42.4037 50.8844 42.5706 51.4983 42.9039C52.1124 43.2303 52.5926 43.6843 52.9393 44.2659C53.2861 44.8405 53.4594 45.4896 53.4594 46.2132C53.4594 46.9368 53.2861 47.5895 52.9393 48.1711C52.5926 48.7457 52.1124 49.1999 51.4983 49.5332C50.8844 49.8596 50.1981 50.0226 49.4397 50.0226ZM49.4397 49.0756C49.9959 49.0756 50.4943 48.9515 50.9349 48.7032C51.3828 48.455 51.7332 48.1145 51.9859 47.6816C52.2459 47.2419 52.3759 46.7525 52.3759 46.2132C52.3759 45.6741 52.2459 45.1882 51.9859 44.7554C51.7332 44.3157 51.3828 43.9716 50.9349 43.7232C50.4943 43.4751 49.9959 43.3508 49.4397 43.3508C48.8836 43.3508 48.3778 43.4751 47.9228 43.7232C47.475 43.9716 47.121 44.3157 46.8609 44.7554C46.6083 45.1882 46.4817 45.6741 46.4817 46.2132C46.4817 46.7525 46.6083 47.2419 46.8609 47.6816C47.121 48.1145 47.475 48.455 47.9228 48.7032C48.3778 48.9515 48.8836 49.0756 49.4397 49.0756ZM62.1474 49.9375L62.1366 44.5106L59.3954 49.033H58.8969L56.1557 44.5426V49.9375H55.1155V42.4889H56.004L59.1678 47.7242L62.2883 42.4889H63.1768L63.1876 49.9375H62.1474ZM68.4217 42.4889C69.4042 42.4889 70.177 42.7196 70.7404 43.1805C71.3038 43.6417 71.5855 44.2765 71.5855 45.0852C71.5855 45.894 71.3038 46.529 70.7404 46.99C70.177 47.4511 69.4042 47.6816 68.4217 47.6816H66.5473V49.9375H65.4638V42.4889H68.4217ZM68.3892 46.7559C69.0755 46.7559 69.5992 46.6141 69.9603 46.3302C70.3215 46.0395 70.502 45.6245 70.502 45.0852C70.502 44.5462 70.3215 44.1348 69.9603 43.8509C69.5992 43.5602 69.0755 43.4146 68.3892 43.4146H66.5473V46.7559H68.3892ZM77.6288 48.0754H73.5982L72.7639 49.9375H71.6479L75.0826 42.4889H76.1552L79.6007 49.9375H78.4631L77.6288 48.0754ZM77.2495 47.2241L75.6135 43.5742L73.9774 47.2241H77.2495ZM87.2549 42.4889V49.9375H86.3665L81.8158 44.3829V49.9375H80.7323V42.4889H81.6207L86.1714 48.0434V42.4889H87.2549ZM92.4289 47.3624V49.9375H91.3563V47.3411L88.3441 42.4889H89.5035L91.9305 46.4154L94.3684 42.4889H95.4411L92.4289 47.3624Z" fill="white"/>
</g>
<defs>
<clipPath id="clip0_62_527">
<rect width="162.933" height="52" fill="white"/>
</clipPath>
</defs>
</svg>
