<svg width="106" height="34" viewBox="0 0 106 34" fill="none" xmlns="http://www.w3.org/2000/svg">
<g clip-path="url(#clip0_269:199)">
<path d="M12.5103 21.3537L8.0553 22.4421L7.7236 21.7972L20.907 17.9396V33.7253H12.4939L12.5103 21.3537Z" fill="#4397DE"/>
<path d="M52.6005 14.535C52.6005 16.0998 51.3485 17.3683 49.804 17.3683C48.2596 17.3683 47.0075 16.0998 47.0075 14.535C47.0075 12.9702 48.2596 11.7017 49.804 11.7017C51.3485 11.7017 52.6005 12.9702 52.6005 14.535ZM47.8657 14.535C47.8657 15.6198 48.7335 16.499 49.804 16.499C50.8745 16.499 51.7424 15.6198 51.7424 14.535C51.7424 13.4504 50.8745 12.5711 49.804 12.5711C48.7335 12.5711 47.8657 13.4504 47.8657 14.535Z" fill="white"/>
<path d="M0.0687267 22.5007L71.8086 1.21783L70.6425 0.338898L0 21.2963L0.0687267 22.5007Z" fill="white"/>
<path d="M84.1684 33.9826L106 27.4566L104.891 26.6101L84.0997 32.7781L84.1684 33.9826Z" fill="white"/>
<path d="M84.655 32.8773L50.0857 6.43274L49.5963 7.53404L84.1656 33.9787L84.655 32.8773Z" fill="white"/>
<path d="M80.4282 18.3089L61.0798 3.50797L60.5904 4.60927L79.0339 18.6865L80.4282 18.3089Z" fill="white"/>
<path d="M106 27.4562L70.6445 0.368256L70.1363 1.48284L104.202 27.6222L106 27.4562Z" fill="white"/>
<path d="M85.3691 18.3492C86.2885 18.3492 87.0337 17.5941 87.0337 16.6627C87.0337 15.7313 86.2885 14.9762 85.3691 14.9762C84.4498 14.9762 83.7046 15.7313 83.7046 16.6627C83.7046 17.5941 84.4498 18.3492 85.3691 18.3492Z" fill="white"/>
<path d="M86.4902 14.9912C86.333 14.8047 85.9203 14.5165 85.708 14.4057C85.4958 14.295 85.2657 14.2286 85.0306 14.2104C84.7957 14.1922 84.5607 14.2225 84.3388 14.2997C84.1171 14.3769 83.9128 14.4992 83.7379 14.6599C83.563 14.8207 83.4207 15.0167 83.3193 15.2364C83.2179 15.4564 83.1593 15.6958 83.1467 15.9414C83.1342 16.1868 83.1682 16.4336 83.2465 16.6673C83.2812 16.771 83.3657 16.917 83.4625 17.0635C83.4642 17.0661 83.4607 17.0608 83.4625 17.0635C83.5849 17.2473 83.5316 17.509 83.6718 17.6793C84.1921 17.2013 85.1441 16.3114 85.1441 16.3114L86.4902 14.9912Z" fill="#4397DE"/>
<path d="M83.3325 18.0011L83.6718 17.6793C83.5316 17.509 83.5848 17.2473 83.4625 17.0635C83.5705 17.4958 83.0641 17.9305 83.3325 18.0011Z" fill="#4397DE"/>
<path d="M85.5837 21.033L83.2734 20.7116C83.0006 20.6736 82.7491 20.8669 82.7116 21.1433C82.6742 21.4197 82.8649 21.6745 83.1377 21.7124L85.4481 22.0338C85.7209 22.0718 85.9724 21.8785 86.0098 21.6021C86.0473 21.3257 85.8565 21.0709 85.5837 21.033Z" fill="white"/>
<path d="M86.4017 18.1183C87.0114 17.5007 87.9997 17.5007 88.6093 18.1183L91.9782 21.5316C92.5878 22.1492 92.5878 23.1506 91.9782 23.7681L90.8743 24.8865L90.6809 24.6905L86.1455 20.0952C85.6774 19.6211 85.6774 18.8522 86.1455 18.3781L86.4017 18.1183Z" fill="white"/>
<path fill-rule="evenodd" clip-rule="evenodd" d="M87.4286 19.6984L85.8971 18.9563L84.6462 22.025C84.637 22.0476 84.622 22.0672 84.6025 22.0818L83.3652 23.014L82.1865 23.8306C81.9192 24.0158 81.8507 24.3854 82.0335 24.6562C82.1835 24.8784 82.4559 24.965 82.6966 24.8868L82.7012 24.8928L82.7245 24.8768C82.7674 24.8604 82.809 24.8386 82.8485 24.8113L85.1122 23.2429C85.1178 23.239 85.1234 23.235 85.1288 23.2309L85.1647 23.2063C85.1647 23.2063 86.1837 22.4515 86.6296 21.7897C87.1168 21.0664 87.4286 19.6984 87.4286 19.6984Z" fill="white"/>
<path d="M82.3036 18.8889L81.8357 19.1548L83.5963 22.3341L84.0642 22.0681L82.3036 18.8889Z" fill="white"/>
<path d="M81.098 19.0389L82.0975 18.5211C82.0975 18.5211 82.7227 18.2314 82.786 18.4119C82.8492 18.5925 82.4198 18.9225 82.4198 18.9225L81.3977 19.5303L81.098 19.0389Z" fill="white"/>
<path fill-rule="evenodd" clip-rule="evenodd" d="M89.7724 26.7421C89.8162 26.7636 89.8618 26.7826 89.9091 26.7987C89.9703 26.8197 90.032 26.8352 90.0938 26.8455L94.5724 28.2865C95.0475 28.4394 95.555 28.173 95.7059 27.6916C95.8568 27.2102 95.5939 26.6961 95.1188 26.5432L91.6043 25.4124L92.2653 23.4289C92.4717 22.8095 92.1435 22.1378 91.5321 21.9287C90.9207 21.7195 90.2578 22.0521 90.0513 22.6716L89.2916 24.9512C89.0875 25.059 88.9238 25.2455 88.8486 25.4854C88.6977 25.9668 88.9606 26.4809 89.4357 26.6338L89.7724 26.7421Z" fill="white"/>
<path fill-rule="evenodd" clip-rule="evenodd" d="M89.3666 25.2345L90.2692 24.4961C90.7721 24.0847 90.8507 23.3381 90.4446 22.8286L90.4446 22.8286C90.0385 22.319 89.3017 22.2395 88.7988 22.6509L86.6727 24.3901C86.1698 24.8016 86.0913 25.5481 86.4973 26.0577L86.4973 26.0577C86.6758 26.2817 86.9183 26.4226 87.1767 26.4752L91.0629 27.6641C91.5402 27.8102 92.0438 27.5366 92.1879 27.0531C92.3321 26.5695 92.0621 26.0592 91.5848 25.9131L89.3666 25.2345Z" fill="white"/>
<path d="M26.4779 25.1937H25.7078V21.3172H23.7488V25.1937H22.9787V20.6855H26.4779V25.1937ZM30.9641 23.0573C30.9641 23.499 30.8888 23.8872 30.738 24.2215C30.5873 24.5538 30.3713 24.8099 30.0902 24.9895C29.811 25.1669 29.4892 25.2557 29.1244 25.2557C28.7638 25.2557 28.442 25.1669 28.1587 24.9895C27.8776 24.8099 27.6596 24.5549 27.5047 24.2246C27.3519 23.8943 27.2745 23.5134 27.2725 23.0821V22.8282C27.2725 22.3885 27.3489 22.0004 27.5017 21.6639C27.6565 21.3274 27.8735 21.0706 28.1526 20.893C28.4337 20.7134 28.7557 20.6236 29.1183 20.6236C29.4809 20.6236 29.8019 20.7123 30.081 20.8899C30.3621 21.0653 30.5791 21.3192 30.7319 21.6515C30.8848 21.9818 30.9621 22.3669 30.9641 22.8064V23.0573ZM30.191 22.822C30.191 22.3225 30.0973 21.9396 29.9098 21.6732C29.7245 21.4069 29.4605 21.2739 29.1183 21.2739C28.7842 21.2739 28.5224 21.4069 28.3329 21.6732C28.1455 21.9374 28.0498 22.3121 28.0457 22.7973V23.0573C28.0457 23.5527 28.1403 23.9356 28.3298 24.206C28.5213 24.4765 28.7862 24.6117 29.1244 24.6117C29.4667 24.6117 29.7295 24.4796 29.9129 24.2153C30.0983 23.9511 30.191 23.5651 30.191 23.0573V22.822ZM33.0515 23.2617H32.5258V25.1937H31.7557V20.6855H32.5258V22.5805H32.9506L34.2586 20.6855H35.206L33.6779 22.8437L35.3405 25.1937H34.4114L33.0515 23.2617ZM36.5415 23.5187V25.1937H35.7683V20.6855H37.4705C37.9676 20.6855 38.3619 20.8166 38.6533 21.0788C38.9466 21.3409 39.0932 21.6877 39.0932 22.1192C39.0932 22.5609 38.9497 22.9045 38.6624 23.1502C38.3772 23.3958 37.9768 23.5187 37.4613 23.5187H36.5415ZM36.5415 22.8901H37.4705C37.7456 22.8901 37.9555 22.8251 38.1001 22.695C38.2447 22.5629 38.317 22.3729 38.317 22.1254C38.317 21.8817 38.2436 21.6877 38.097 21.5432C37.9503 21.3967 37.7487 21.3212 37.4919 21.3172H36.5415V22.8901ZM40.5878 25.1937H39.8175V20.6855H40.5878V25.1937ZM41.5382 25.1937V20.6855H43.063C43.5663 20.6855 43.9494 20.7876 44.2121 20.992C44.475 21.1964 44.6064 21.5008 44.6064 21.9054C44.6064 22.1119 44.5514 22.2977 44.4413 22.4628C44.3313 22.6279 44.1704 22.756 43.9586 22.8468C44.1989 22.9128 44.3843 23.0377 44.5147 23.2215C44.6472 23.4031 44.7134 23.6219 44.7134 23.8779C44.7134 24.301 44.5789 24.6261 44.31 24.8532C44.043 25.0803 43.66 25.1937 43.1609 25.1937H41.5382ZM42.3113 23.1595V24.5682H43.1701C43.4125 24.5682 43.602 24.5074 43.7385 24.3856C43.875 24.2639 43.9433 24.0945 43.9433 23.8779C43.9433 23.4093 43.7069 23.1698 43.2343 23.1595H42.3113ZM42.3113 22.5836H43.0692C43.3097 22.5836 43.497 22.5289 43.6315 22.4195C43.768 22.3081 43.8363 22.1511 43.8363 21.9488C43.8363 21.7259 43.7731 21.5649 43.6468 21.4657C43.5225 21.3667 43.3279 21.3172 43.063 21.3172H42.3113V22.5836ZM48.0873 23.1811H46.2597V24.5682H48.3959V25.1937H45.4865V20.6855H48.3745V21.3172H46.2597V22.5618H48.0873V23.1811ZM52.5246 20.6855V25.1937H51.7545V21.3172H50.3916L50.3121 23.0604C50.2814 23.6053 50.2152 24.0286 50.1134 24.3298C50.0136 24.6292 49.8679 24.8481 49.6765 24.9864C49.4848 25.1247 49.2282 25.1937 48.9062 25.1937H48.7107V24.5682L48.833 24.5591C49.0102 24.5425 49.1467 24.4796 49.2425 24.3702C49.3402 24.2608 49.4136 24.0956 49.4625 23.8747C49.5135 23.6519 49.549 23.3247 49.5694 22.8932L49.655 20.6855H52.5246ZM54.2177 22.4102H55.1284C55.4544 22.4102 55.7386 22.467 55.9811 22.5805C56.2234 22.6941 56.4079 22.855 56.5342 23.0635C56.6605 23.2719 56.7236 23.5134 56.7236 23.788C56.7236 24.2091 56.582 24.5476 56.2988 24.8037C56.0177 25.0596 55.6336 25.1897 55.1468 25.1937H53.4445V20.6855H54.2177V22.4102ZM54.2177 23.0388V24.5682H55.1253C55.3861 24.5682 55.5889 24.4971 55.7335 24.3547C55.8801 24.2102 55.9535 24.0192 55.9535 23.7818C55.9535 23.5547 55.8823 23.3751 55.7396 23.2431C55.597 23.111 55.3994 23.0428 55.1468 23.0388H54.2177ZM60.9258 25.1937H60.1555V23.1904H58.166V25.1937H57.3929V20.6855H58.166V22.5618H60.1555V20.6855H60.9258V25.1937ZM64.3882 24.1441H62.6647L62.304 25.1937H61.5003L63.1811 20.6855H63.8749L65.5588 25.1937H64.7519L64.3882 24.1441ZM62.8816 23.5125H64.1713L63.5264 21.6422L62.8816 23.5125ZM24.7458 30.9794H24.0207V33.6937H23.2342V27.6508H24.0207V30.3153H24.6351L26.7203 27.6508H27.6993L25.4216 30.581L27.8672 33.6937H26.9046L24.7458 30.9794ZM33.0451 30.8673C33.0451 31.4595 32.9468 31.9769 32.7501 32.4195C32.5535 32.8595 32.275 33.1957 31.9145 33.4281C31.554 33.6605 31.1334 33.7767 30.6528 33.7767C30.1831 33.7767 29.7666 33.6605 29.4034 33.4281C29.0401 33.1929 28.7576 32.8595 28.5554 32.4279C28.3561 31.9935 28.2537 31.4913 28.2482 30.9213V30.4855C28.2482 29.9045 28.3478 29.3913 28.5473 28.9457C28.7466 28.5002 29.0279 28.16 29.391 27.9247C29.757 27.6868 30.1748 27.5678 30.6447 27.5678C31.1225 27.5678 31.5431 27.6854 31.9063 27.9206C32.2722 28.1529 32.5535 28.492 32.7501 28.9374C32.9468 29.3802 33.0451 29.8961 33.0451 30.4855V30.8673ZM32.2626 30.4772C32.2626 29.7605 32.1207 29.2114 31.8366 28.8294C31.5526 28.4449 31.1552 28.2527 30.6447 28.2527C30.1475 28.2527 29.7556 28.4449 29.4689 28.8294C29.1849 29.2114 29.0388 29.7426 29.0306 30.4233V30.8673C29.0306 31.5619 29.174 32.1083 29.4607 32.5067C29.7502 32.9024 30.1475 33.1002 30.6528 33.1002C31.1608 33.1002 31.554 32.9135 31.8325 32.5399C32.1111 32.1636 32.2545 31.6255 32.2626 30.9254V30.4772ZM35.2407 27.6508L37.1907 32.5814L39.1405 27.6508H40.1606V33.6937H39.3741V31.3404L39.4477 28.8004L37.4896 33.6937H36.8875L34.9335 28.8128L35.0114 31.3404V33.6937H34.2248V27.6508H35.2407ZM46.1044 33.6937H45.3138V28.3066H42.3726V33.6937H41.5861V27.6508H46.1044V33.6937ZM50.8317 32.1166H48.3329L47.7717 33.6937H46.9605L49.2382 27.6508H49.9264L52.2081 33.6937H51.4011L50.8317 32.1166ZM48.5705 31.4608H50.5982L49.5823 28.6345L48.5705 31.4608ZM57.5949 33.6937H56.8043V30.9006H53.7975V33.6937H53.0111V27.6508H53.7975V30.2489H56.8043V27.6508H57.5949V33.6937ZM59.8357 33.6937H59.0491V27.6508H59.8357V33.6937ZM64.399 33.6937V31.3404H63.0226L61.7896 33.6937H60.9499L62.3344 31.1205C61.5643 30.8135 61.1792 30.2642 61.1792 29.4729C61.1792 28.8973 61.365 28.4504 61.7364 28.1323C62.1106 27.8113 62.6294 27.6508 63.2929 27.6508H65.1896V33.6937H64.399ZM61.9658 29.4729C61.9658 29.8381 62.0777 30.1313 62.3016 30.3527C62.5283 30.5741 62.8424 30.6861 63.2438 30.6889H64.399V28.3066H63.2807C62.8547 28.3066 62.5283 28.4089 62.3016 28.6137C62.0777 28.8184 61.9658 29.1048 61.9658 29.4729Z" fill="white"/>
</g>
<defs>
<clipPath id="clip0_269:199">
<rect width="106" height="34" fill="white"/>
</clipPath>
</defs>
</svg>
